<?xml version="1.0" standalone="no"?>
<!DOCTYPE svg PUBLIC "-//W3C//DTD SVG 20010904//EN"
 "http://www.w3.org/TR/2001/REC-SVG-20010904/DTD/svg10.dtd">
<svg version="1.0" xmlns="http://www.w3.org/2000/svg"
 width="1088.000000pt" height="1088.000000pt" viewBox="0 0 1088.000000 1088.000000"
 preserveAspectRatio="xMidYMid meet">
<metadata>
Created by potrace 1.11, written by Peter Selinger 2001-2013
</metadata>
<g transform="translate(0.000000,1088.000000) scale(0.100000,-0.100000)"
fill="#000000" stroke="none">
<path d="M640 9280 l0 -1600 320 0 320 0 0 640 0 640 640 0 640 0 0 -640 0
-640 320 0 320 0 0 1600 0 1600 -320 0 -320 0 0 -640 0 -640 -640 0 -640 0 0
640 0 640 -320 0 -320 0 0 -1600z"/>
<path d="M4480 10560 l0 -320 -320 0 -320 0 0 -960 0 -960 320 0 320 0 0 -320
0 -320 640 0 640 0 0 320 0 320 320 0 320 0 0 960 0 960 -320 0 -320 0 0 320
0 320 -640 0 -640 0 0 -320z m1280 -1280 l0 -960 -640 0 -640 0 0 960 0 960
640 0 640 0 0 -960z"/>
<path d="M7040 10560 l0 -320 640 0 640 0 0 -1280 0 -1280 320 0 320 0 0 1280
0 1280 640 0 640 0 0 320 0 320 -1600 0 -1600 0 0 -320z"/>
<path d="M1280 6720 l0 -320 -320 0 -320 0 0 -320 0 -320 320 0 320 0 0 -320
0 -320 640 0 640 0 0 -320 0 -320 -960 0 -960 0 0 -320 0 -320 960 0 960 0 0
320 0 320 320 0 320 0 0 320 0 320 -320 0 -320 0 0 320 0 320 -640 0 -640 0 0
320 0 320 960 0 960 0 0 320 0 320 -960 0 -960 0 0 -320z"/>
<path d="M3840 4160 l0 -320 320 0 320 0 0 320 0 320 -320 0 -320 0 0 -320z"/>
<path d="M640 1600 l0 -1600 960 0 960 0 0 320 0 320 320 0 320 0 0 960 0 960
-320 0 -320 0 0 320 0 320 -960 0 -960 0 0 -1600z m1920 0 l0 -960 -640 0
-640 0 0 960 0 960 640 0 640 0 0 -960z"/>
<path d="M4480 2880 l0 -320 -320 0 -320 0 0 -960 0 -960 320 0 320 0 0 -320
0 -320 640 0 640 0 0 320 0 320 320 0 320 0 0 960 0 960 -320 0 -320 0 0 320
0 320 -640 0 -640 0 0 -320z m1280 -1280 l0 -960 -640 0 -640 0 0 960 0 960
640 0 640 0 0 -960z"/>
<path d="M7680 2880 l0 -320 -320 0 -320 0 0 -960 0 -960 320 0 320 0 0 -320
0 -320 640 0 640 0 0 320 0 320 320 0 320 0 0 640 0 640 -640 0 -640 0 0 -320
0 -320 320 0 320 0 0 -320 0 -320 -640 0 -640 0 0 960 0 960 640 0 640 0 0
320 0 320 -640 0 -640 0 0 -320z"/>
</g>
</svg>
