<?xml version="1.0" standalone="no"?>
<!DOCTYPE svg PUBLIC "-//W3C//DTD SVG 20010904//EN"
 "http://www.w3.org/TR/2001/REC-SVG-20010904/DTD/svg10.dtd">
<svg version="1.0" xmlns="http://www.w3.org/2000/svg"
 width="700.000000pt" height="700.000000pt" viewBox="0 0 700.000000 700.000000"
 preserveAspectRatio="xMidYMid meet">
<metadata>
Created by potrace 1.11, written by Peter Selinger 2001-2013
</metadata>
<g transform="translate(0.000000,700.000000) scale(0.100000,-0.100000)"
fill="#000000" stroke="none">
<path d="M410 5970 l0 -1030 205 0 205 0 0 410 0 410 415 0 415 0 0 -410 0
-410 205 0 205 0 0 1030 0 1030 -205 0 -205 0 0 -410 0 -410 -415 0 -415 0 0
410 0 410 -205 0 -205 0 0 -1030z"/>
<path d="M2880 6795 l0 -205 -205 0 -205 0 0 -620 0 -620 205 0 205 0 0 -205
0 -205 415 0 415 0 0 205 0 205 205 0 205 0 0 620 0 620 -205 0 -205 0 0 205
0 205 -415 0 -415 0 0 -205z m830 -825 l0 -620 -415 0 -415 0 0 620 0 620 415
0 415 0 0 -620z"/>
<path d="M4530 6795 l0 -205 410 0 410 0 0 -825 0 -825 205 0 205 0 2 823 3
822 413 3 412 2 0 205 0 205 -1030 0 -1030 0 0 -205z"/>
<path d="M820 4325 l0 -205 -205 0 -205 0 0 -205 0 -205 205 0 205 0 0 205 0
205 620 0 620 0 0 205 0 205 -620 0 -620 0 0 -205z"/>
<path d="M825 3697 c-3 -7 -4 -100 -3 -207 l3 -195 410 0 410 0 0 205 0 205
-408 3 c-326 2 -409 0 -412 -11z"/>
<path d="M1650 3085 l0 -205 -620 0 -620 0 0 -205 0 -205 620 0 620 0 0 205 0
205 205 0 205 0 0 205 0 205 -205 0 -205 0 0 -205z"/>
<path d="M2470 2675 l0 -205 205 0 205 0 0 205 0 205 -205 0 -205 0 0 -205z"/>
<path d="M410 1030 l0 -1030 620 0 620 0 0 205 0 205 205 0 205 0 0 620 0 620
-205 0 -205 0 0 205 0 205 -620 0 -620 0 0 -1030z m1240 0 l0 -620 -415 0
-415 0 0 613 c0 338 3 617 7 620 3 4 190 7 415 7 l408 0 0 -620z"/>
<path d="M2880 1855 l0 -205 -205 0 -205 0 0 -620 0 -620 205 0 205 0 0 -205
0 -205 415 0 415 0 0 205 0 205 205 0 205 0 0 620 0 620 -205 0 -205 0 0 205
0 205 -415 0 -415 0 0 -205z m830 -825 l0 -620 -415 0 -415 0 0 620 0 620 415
0 415 0 0 -620z"/>
<path d="M4940 1855 l0 -205 -205 0 -205 0 0 -620 0 -620 205 0 205 0 0 -205
0 -205 410 0 410 0 0 205 0 205 -410 0 -410 0 0 620 0 620 410 0 410 0 0 205
0 205 -410 0 -410 0 0 -205z"/>
<path d="M5355 1227 c-3 -7 -4 -100 -3 -207 l3 -195 202 -3 203 -2 2 -203 3
-202 208 -3 207 -2 -2 412 -3 413 -408 3 c-326 2 -409 0 -412 -11z"/>
</g>
</svg>
